<svg xmlns="http://www.w3.org/2000/svg" viewBox="0 0 512 512" width="512" height="512">
  <defs>
    <linearGradient id="bg" x1="0" y1="0" x2="0" y2="1">
      <stop offset="0" stop-color="#eaf4f4"/>
      <stop offset="1" stop-color="#cfe5e5"/>
    </linearGradient>
    <filter id="soft" x="-20%" y="-20%" width="140%" height="140%">
      <feGaussianBlur stdDeviation="2"/>
    </filter>
  </defs>
  <rect width="512" height="512" fill="url(#bg)"/>
  <ellipse cx="256" cy="455" rx="180" ry="14" fill="#000" opacity="0.15"/>
  <g transform="translate(0,256)">
    <ellipse cx="80" cy="0" rx="22" ry="70" fill="#d4d4d8" stroke="#27272a" stroke-width="3"/>
    <rect x="80" y="-70" width="350" height="140" fill="#e4e4e7" stroke="#27272a" stroke-width="3"/>
    <ellipse cx="430" cy="0" rx="22" ry="70" fill="#a1a1aa" stroke="#27272a" stroke-width="3"/>
    <ellipse cx="80" cy="0" rx="16" ry="50" fill="#52525b"/>
    <ellipse cx="80" cy="0" rx="11" ry="35" fill="#18181b"/>
    <!-- Threaded end -->
    <g stroke="#27272a" stroke-width="2" fill="none">
      <line x1="380" y1="-65" x2="380" y2="65"/>
      <line x1="390" y1="-65" x2="390" y2="65"/>
      <line x1="400" y1="-65" x2="400" y2="65"/>
      <line x1="410" y1="-65" x2="410" y2="65"/>
      <line x1="420" y1="-65" x2="420" y2="65"/>
    </g>
    <!-- Highlight -->
    <rect x="80" y="-65" width="350" height="20" fill="#fff" opacity="0.4"/>
  </g>
  <rect x="180" y="80" width="152" height="35" rx="5" fill="#dcfce7" stroke="#166534" stroke-width="2"/>
  <text x="256" y="103" font-family="Arial, sans-serif" font-size="16" font-weight="bold" fill="#14532d" text-anchor="middle">GI PIPE</text>
</svg>
